# xmcd
#
# Track frame offsets: 
#        150
#        14435
#        28042
#        43960
#        60912
#        75222
#        90132
#        102665
#        115790
#        130560
#        147892
#        169095
#        180872
#        195402
#        212495
#
# Disc length: 3042 seconds
#
# Revision: 0
# Processed by: cddbd v1.4b42PL1 Copyright (c) Steve Scherf et al.
# Submitted via: ExactAudioCopy v0.90a11
#
DISCID=af0be00f
DTITLE=Percy Strother - A Good Woman is Hard to Find
DYEAR=1900
DGENRE=
TTITLE0=A Good Woman Is Hard To Find
TTITLE1=Your Fool Done Woke Up
TTITLE2=Somebody Else Is Steppin' In
TTITLE3=Made A Good Woman Go Bad
TTITLE4=If You Don't Love Me When I Want It
TTITLE5=Givin' It Up For Your Love
TTITLE6=She Keeps Me Satisfied
TTITLE7=I'm Falling In Love With You, Baby
TTITLE8=Can't Let You Go
TTITLE9=Someday I Will Be Over You
TTITLE10=Down Home Blues
TTITLE11=Will You Be My Part-Time Lady?
TTITLE12=Shade Tree Mechanic
TTITLE13=Love Is Growing Cold
TTITLE14=Grits Ain't Groceries
EXTD=
EXTT0=
EXTT1=
EXTT2=
EXTT3=
EXTT4=
EXTT5=
EXTT6=
EXTT7=
EXTT8=
EXTT9=
EXTT10=
EXTT11=
EXTT12=
EXTT13=
EXTT14=
PLAYORDER=
